# xmcd
#
# Track frame offsets: 
#        150
#        16752
#        34959
#        44716
#        61169
#        91274
#        104918
#        126586
#        139948
#        160693
#        180613
#        197564
#        216705
#        231514
#        254010
#
# Disc length: 3598 seconds
#
# Revision: 1
# Processed by: cddbd v1.5.2PL0 Copyright (c) Steve Scherf et al.
# Submitted via: ExactAudioCopy v0.95b4
#
DISCID=ea0e0c0f
DTITLE=Various Artist - A Walk On The Blues Side Vol.2
DYEAR=2006
DGENRE=
TTITLE0=White Cadillac The Band
TTITLE1=Bold As Love Joan Osbourne
TTITLE2=I Need Your Love So Bad Robert Palmer
TTITLE3=Watching The River Flow Leon Russel
TTITLE4=How Sweet It Is Cissy Tisson
TTITLE5=I Believe Im Going To Make It Joe Tex
TTITLE6=Trampled Underfoot Eric Gales
TTITLE7=Bring It On Home Pt 1 Robert Lockwood
TTITLE8=Ventilator Blues Clarence Brown
TTITLE9=A Touch Of Lovefrancine Reed
TTITLE10=We Can Win Edgar Winter
TTITLE11=Turtle Blues Lynn Jordan
TTITLE12=Its All Over Now Bobby Womack
TTITLE13=People Get Ready Slim And The Supreme Angels
TTITLE14=Trouble In Mind Willie Kent
EXTD=
EXTT0=
EXTT1=
EXTT2=
EXTT3=
EXTT4=
EXTT5=
EXTT6=
EXTT7=
EXTT8=
EXTT9=
EXTT10=
EXTT11=
EXTT12=
EXTT13=
EXTT14=
PLAYORDER=
